{"asset":{"version":"2.0","generator":"babylon.js glTF exporter for 3dsmax 2021 v20200917.1"},"scene":0,"scenes":[{"nodes":[0,1,2,3,4,5]}],"nodes":[{"mesh":0,"translation":[-0.06267881,0.33480233,-0.132844433],"scale":[2.60705638,2.60705638,2.60705638],"name":"Capsule001"},{"mesh":1,"translation":[-0.0558706224,1.532728,-0.746849835],"scale":[2.60705638,2.029689,2.60705638],"name":"Box002"},{"mesh":2,"translation":[-0.361596,1.57191062,-0.688035],"scale":[2.60705638,2.60705638,2.60705638],"name":"Sphere001"},{"mesh":3,"translation":[0.2512802,1.57620668,-0.68357724],"scale":[2.60705638,2.60705638,2.60705638],"name":"Sphere002"},{"mesh":4,"translation":[-0.04969815,0.9453524,-0.7343461],"scale":[2.60705638,2.60705638,0.996404648],"name":"Box004"},{"name":"Default light"}],"meshes":[{"primitives":[{"attributes":{"POSITION":1,"NORMAL":2,"TEXCOORD_0":3},"indices":0,"material":0}],"name":"Capsule001"},{"primitives":[{"attributes":{"POSITION":5,"NORMAL":6,"TEXCOORD_0":7},"indices":4,"material":0}],"name":"Box002"},{"primitives":[{"attributes":{"POSITION":9,"NORMAL":10,"TEXCOORD_0":11},"indices":8,"material":1}],"name":"Sphere001"},{"primitives":[{"attributes":{"POSITION":13,"NORMAL":14,"TEXCOORD_0":15},"indices":12,"material":1}],"name":"Sphere002"},{"primitives":[{"attributes":{"POSITION":17,"NORMAL":18,"TEXCOORD_0":19},"indices":16,"material":1}],"name":"Box004"}],"accessors":[{"bufferView":0,"componentType":5123,"count":864,"type":"SCALAR","name":"accessorIndices"},{"bufferView":1,"componentType":5126,"count":864,"max":[0.242511362,0.7192536,0.247351915],"min":[-0.242511362,-0.198034123,-0.244141236],"type":"VEC3","name":"accessorPositions"},{"bufferView":1,"byteOffset":10368,"componentType":5126,"count":864,"type":"VEC3","name":"accessorNormals"},{"bufferView":2,"componentType":5126,"count":864,"type":"VEC2","name":"accessorUVs"},{"bufferView":0,"byteOffset":1728,"componentType":5123,"count":36,"type":"SCALAR","name":"accessorIndices"},{"bufferView":1,"byteOffset":20736,"componentType":5126,"count":36,"max":[0.0453849956,0.0,0.0405422263],"min":[-0.0453849956,-0.179068789,-0.04545788],"type":"VEC3","name":"accessorPositions"},{"bufferView":1,"byteOffset":21168,"componentType":5126,"count":36,"type":"VEC3","name":"accessorNormals"},{"bufferView":2,"byteOffset":6912,"componentType":5126,"count":36,"type":"VEC2","name":"accessorUVs"},{"bufferView":0,"byteOffset":1800,"componentType":5123,"count":84,"type":"SCALAR","name":"accessorIndices"},{"bufferView":1,"byteOffset":21600,"componentType":5126,"count":84,"max":[0.0312970467,0.03292747,0.0289228242],"min":[-0.0312970467,-0.03292747,-0.03210191],"type":"VEC3","name":"accessorPositions"},{"bufferView":1,"byteOffset":22608,"componentType":5126,"count":84,"type":"VEC3","name":"accessorNormals"},{"bufferView":2,"byteOffset":7200,"componentType":5126,"count":84,"type":"VEC2","name":"accessorUVs"},{"bufferView":0,"byteOffset":1968,"componentType":5123,"count":84,"type":"SCALAR","name":"accessorIndices"},{"bufferView":1,"byteOffset":23616,"componentType":5126,"count":84,"max":[0.0294470619,0.03098111,0.0272131823],"min":[-0.0294470638,-0.03098111,-0.03020435],"type":"VEC3","name":"accessorPositions"},{"bufferView":1,"byteOffset":24624,"componentType":5126,"count":84,"type":"VEC3","name":"accessorNormals"},{"bufferView":2,"byteOffset":7872,"componentType":5126,"count":84,"type":"VEC2","name":"accessorUVs"},{"bufferView":0,"byteOffset":2136,"componentType":5123,"count":60,"type":"SCALAR","name":"accessorIndices"},{"bufferView":1,"byteOffset":25632,"componentType":5126,"count":60,"max":[0.10795404,0.0699803159,0.07722678],"min":[-0.10795404,0.0,-0.04430427],"type":"VEC3","name":"accessorPositions"},{"bufferView":1,"byteOffset":26352,"componentType":5126,"count":60,"type":"VEC3","name":"accessorNormals"},{"bufferView":2,"byteOffset":8544,"componentType":5126,"count":60,"type":"VEC2","name":"accessorUVs"}],"bufferViews":[{"buffer":0,"byteLength":2256,"name":"bufferViewScalar"},{"buffer":0,"byteOffset":2256,"byteLength":27072,"byteStride":12,"name":"bufferViewFloatVec3"},{"buffer":0,"byteOffset":29328,"byteLength":9024,"byteStride":8,"name":"bufferViewFloatVec2"}],"buffers":[{"uri":"e.bin","byteLength":38352}],"materials":[{"pbrMetallicRoughness":{"baseColorFactor":[0.8,0.8,0.8,1.0],"metallicFactor":0.0,"roughnessFactor":0.2},"name":"Material #44"},{"pbrMetallicRoughness":{"baseColorFactor":[0.0,0.0,0.0,1.0],"metallicFactor":0.0,"roughnessFactor":0.2},"name":"Material #43"}]}